<?xml version="1.0" encoding="UTF-8" standalone="no"?>
<!DOCTYPE svg PUBLIC "-//W3C//DTD SVG 1.1//EN"
 "http://www.w3.org/Graphics/SVG/1.1/DTD/svg11.dtd">
<!-- Generated by graphviz version 10.0.1 (20240210.2158)
 -->
<!-- Title: ArvoreBinaria Pages: 1 -->
<svg width="579pt" height="291pt"
 viewBox="0.00 0.00 579.12 290.98" xmlns="http://www.w3.org/2000/svg" xmlns:xlink="http://www.w3.org/1999/xlink">
<g id="graph0" class="graph" transform="scale(1 1) rotate(0) translate(4 286.98)">
<title>ArvoreBinaria</title>
<polygon fill="white" stroke="none" points="-4,4 -4,-286.98 575.12,-286.98 575.12,4 -4,4"/>
<!-- 25 -->
<g id="node1" class="node">
<title>25</title>
<ellipse fill="#9370db" stroke="black" cx="279" cy="-263.35" rx="19.63" ry="19.63"/>
<text text-anchor="middle" x="279" y="-257.93" font-family="Times New Roman,serif" font-size="14.00">25</text>
</g>
<!-- 20 -->
<g id="node2" class="node">
<title>20</title>
<ellipse fill="#9370db" stroke="black" cx="204" cy="-188.1" rx="19.63" ry="19.63"/>
<text text-anchor="middle" x="204" y="-182.67" font-family="Times New Roman,serif" font-size="14.00">20</text>
</g>
<!-- 25&#45;&gt;20 -->
<g id="edge1" class="edge">
<title>25&#45;&gt;20</title>
<path fill="none" stroke="black" d="M265.24,-248.92C254.14,-238.08 238.33,-222.63 225.55,-210.15"/>
<polygon fill="black" stroke="black" points="228.35,-207.99 218.75,-203.51 223.46,-213 228.35,-207.99"/>
</g>
<!-- 91 -->
<g id="node3" class="node">
<title>91</title>
<ellipse fill="#9370db" stroke="black" cx="352" cy="-188.1" rx="19.63" ry="19.63"/>
<text text-anchor="middle" x="352" y="-182.67" font-family="Times New Roman,serif" font-size="14.00">91</text>
</g>
<!-- 25&#45;&gt;91 -->
<g id="edge2" class="edge">
<title>25&#45;&gt;91</title>
<path fill="none" stroke="black" d="M292.39,-248.92C303.02,-238.25 318.11,-223.11 330.44,-210.74"/>
<polygon fill="black" stroke="black" points="332.8,-213.32 337.38,-203.77 327.84,-208.38 332.8,-213.32"/>
</g>
<!-- 14 -->
<g id="node4" class="node">
<title>14</title>
<ellipse fill="#9370db" stroke="black" cx="92" cy="-108.35" rx="19.63" ry="19.63"/>
<text text-anchor="middle" x="92" y="-102.93" font-family="Times New Roman,serif" font-size="14.00">14</text>
</g>
<!-- 20&#45;&gt;14 -->
<g id="edge3" class="edge">
<title>20&#45;&gt;14</title>
<path fill="none" stroke="black" d="M187.95,-175.96C169.49,-163.14 138.94,-141.94 117.27,-126.9"/>
<polygon fill="black" stroke="black" points="119.47,-124.16 109.26,-121.34 115.48,-129.91 119.47,-124.16"/>
</g>
<!-- 23 -->
<g id="node5" class="node">
<title>23</title>
<ellipse fill="#9370db" stroke="black" cx="204" cy="-108.35" rx="19.63" ry="19.63"/>
<text text-anchor="middle" x="204" y="-102.93" font-family="Times New Roman,serif" font-size="14.00">23</text>
</g>
<!-- 20&#45;&gt;23 -->
<g id="edge4" class="edge">
<title>20&#45;&gt;23</title>
<path fill="none" stroke="black" d="M204,-168.28C204,-159.65 204,-149.21 204,-139.53"/>
<polygon fill="black" stroke="black" points="207.5,-139.78 204,-129.78 200.5,-139.78 207.5,-139.78"/>
</g>
<!-- 48 -->
<g id="node10" class="node">
<title>48</title>
<ellipse fill="#9370db" stroke="black" cx="352" cy="-108.35" rx="19.63" ry="19.63"/>
<text text-anchor="middle" x="352" y="-102.93" font-family="Times New Roman,serif" font-size="14.00">48</text>
</g>
<!-- 91&#45;&gt;48 -->
<g id="edge9" class="edge">
<title>91&#45;&gt;48</title>
<path fill="none" stroke="black" d="M352,-168.28C352,-159.65 352,-149.21 352,-139.53"/>
<polygon fill="black" stroke="black" points="355.5,-139.78 352,-129.78 348.5,-139.78 355.5,-139.78"/>
</g>
<!-- 100 -->
<g id="node11" class="node">
<title>100</title>
<ellipse fill="#9370db" stroke="black" cx="467" cy="-108.35" rx="24.12" ry="24.12"/>
<text text-anchor="middle" x="467" y="-102.93" font-family="Times New Roman,serif" font-size="14.00">100</text>
</g>
<!-- 91&#45;&gt;100 -->
<g id="edge10" class="edge">
<title>91&#45;&gt;100</title>
<path fill="none" stroke="black" d="M367.99,-176.29C386.05,-164.08 415.82,-143.95 438.01,-128.95"/>
<polygon fill="black" stroke="black" points="439.72,-132.02 446.04,-123.52 435.8,-126.22 439.72,-132.02"/>
</g>
<!-- 6 -->
<g id="node6" class="node">
<title>6</title>
<ellipse fill="#9370db" stroke="black" cx="18" cy="-24.12" rx="18" ry="18"/>
<text text-anchor="middle" x="18" y="-18.69" font-family="Times New Roman,serif" font-size="14.00">6</text>
</g>
<!-- 14&#45;&gt;6 -->
<g id="edge5" class="edge">
<title>14&#45;&gt;6</title>
<path fill="none" stroke="black" d="M79.11,-93.03C67.59,-80.23 50.54,-61.28 37.38,-46.65"/>
<polygon fill="black" stroke="black" points="40.07,-44.41 30.78,-39.32 34.87,-49.09 40.07,-44.41"/>
</g>
<!-- 19 -->
<g id="node7" class="node">
<title>19</title>
<ellipse fill="#9370db" stroke="black" cx="92" cy="-24.12" rx="19.63" ry="19.63"/>
<text text-anchor="middle" x="92" y="-18.69" font-family="Times New Roman,serif" font-size="14.00">19</text>
</g>
<!-- 14&#45;&gt;19 -->
<g id="edge6" class="edge">
<title>14&#45;&gt;19</title>
<path fill="none" stroke="black" d="M92,-88.28C92,-78.52 92,-66.42 92,-55.42"/>
<polygon fill="black" stroke="black" points="95.5,-55.6 92,-45.6 88.5,-55.6 95.5,-55.6"/>
</g>
<!-- 21 -->
<g id="node8" class="node">
<title>21</title>
<ellipse fill="#9370db" stroke="black" cx="167" cy="-24.12" rx="19.63" ry="19.63"/>
<text text-anchor="middle" x="167" y="-18.69" font-family="Times New Roman,serif" font-size="14.00">21</text>
</g>
<!-- 23&#45;&gt;21 -->
<g id="edge7" class="edge">
<title>23&#45;&gt;21</title>
<path fill="none" stroke="black" d="M196.15,-89.91C191.3,-79.12 184.95,-65.02 179.43,-52.74"/>
<polygon fill="black" stroke="black" points="182.75,-51.6 175.46,-43.91 176.37,-54.47 182.75,-51.6"/>
</g>
<!-- 24 -->
<g id="node9" class="node">
<title>24</title>
<ellipse fill="#9370db" stroke="black" cx="242" cy="-24.12" rx="19.63" ry="19.63"/>
<text text-anchor="middle" x="242" y="-18.69" font-family="Times New Roman,serif" font-size="14.00">24</text>
</g>
<!-- 23&#45;&gt;24 -->
<g id="edge8" class="edge">
<title>23&#45;&gt;24</title>
<path fill="none" stroke="black" d="M212.06,-89.91C217.05,-79.12 223.56,-65.02 229.24,-52.74"/>
<polygon fill="black" stroke="black" points="232.3,-54.45 233.32,-43.91 225.95,-51.52 232.3,-54.45"/>
</g>
<!-- 42 -->
<g id="node12" class="node">
<title>42</title>
<ellipse fill="#9370db" stroke="black" cx="317" cy="-24.12" rx="19.63" ry="19.63"/>
<text text-anchor="middle" x="317" y="-18.69" font-family="Times New Roman,serif" font-size="14.00">42</text>
</g>
<!-- 48&#45;&gt;42 -->
<g id="edge11" class="edge">
<title>48&#45;&gt;42</title>
<path fill="none" stroke="black" d="M344.58,-89.91C340.03,-79.23 334.11,-65.31 328.91,-53.11"/>
<polygon fill="black" stroke="black" points="332.14,-51.76 325,-43.93 325.7,-54.5 332.14,-51.76"/>
</g>
<!-- 63 -->
<g id="node13" class="node">
<title>63</title>
<ellipse fill="#9370db" stroke="black" cx="392" cy="-24.12" rx="19.63" ry="19.63"/>
<text text-anchor="middle" x="392" y="-18.69" font-family="Times New Roman,serif" font-size="14.00">63</text>
</g>
<!-- 48&#45;&gt;63 -->
<g id="edge12" class="edge">
<title>48&#45;&gt;63</title>
<path fill="none" stroke="black" d="M360.29,-90.31C365.6,-79.4 372.61,-64.99 378.69,-52.49"/>
<polygon fill="black" stroke="black" points="381.83,-54.02 383.06,-43.5 375.54,-50.96 381.83,-54.02"/>
</g>
<!-- 97 -->
<g id="node14" class="node">
<title>97</title>
<ellipse fill="#9370db" stroke="black" cx="467" cy="-24.12" rx="19.63" ry="19.63"/>
<text text-anchor="middle" x="467" y="-18.69" font-family="Times New Roman,serif" font-size="14.00">97</text>
</g>
<!-- 100&#45;&gt;97 -->
<g id="edge13" class="edge">
<title>100&#45;&gt;97</title>
<path fill="none" stroke="black" d="M467,-84.01C467,-75.13 467,-64.88 467,-55.44"/>
<polygon fill="black" stroke="black" points="470.5,-55.6 467,-45.6 463.5,-55.6 470.5,-55.6"/>
</g>
<!-- 120 -->
<g id="node15" class="node">
<title>120</title>
<ellipse fill="#9370db" stroke="black" cx="547" cy="-24.12" rx="24.12" ry="24.12"/>
<text text-anchor="middle" x="547" y="-18.69" font-family="Times New Roman,serif" font-size="14.00">120</text>
</g>
<!-- 100&#45;&gt;120 -->
<g id="edge14" class="edge">
<title>100&#45;&gt;120</title>
<path fill="none" stroke="black" d="M483.58,-90.31C494.84,-78.74 509.93,-63.23 522.56,-50.24"/>
<polygon fill="black" stroke="black" points="524.93,-52.83 529.39,-43.22 519.91,-47.95 524.93,-52.83"/>
</g>
</g>
</svg>
