<?xml version="1.0" encoding="UTF-8" standalone="no"?>
<!DOCTYPE svg PUBLIC "-//W3C//DTD SVG 1.1//EN"
 "http://www.w3.org/Graphics/SVG/1.1/DTD/svg11.dtd">
<!-- Generated by graphviz version 10.0.1 (20240210.2158)
 -->
<!-- Title: ArvoreBinaria Pages: 1 -->
<svg width="197pt" height="433pt"
 viewBox="0.00 0.00 197.25 432.51" xmlns="http://www.w3.org/2000/svg" xmlns:xlink="http://www.w3.org/1999/xlink">
<g id="graph0" class="graph" transform="scale(1 1) rotate(0) translate(4 428.51)">
<title>ArvoreBinaria</title>
<polygon fill="white" stroke="none" points="-4,4 -4,-428.51 193.25,-428.51 193.25,4 -4,4"/>
<!-- 82 -->
<g id="node1" class="node">
<title>82</title>
<ellipse fill="#9370db" stroke="black" cx="96.63" cy="-404.88" rx="19.63" ry="19.63"/>
<text text-anchor="middle" x="96.63" y="-399.46" font-family="Times New Roman,serif" font-size="14.00">82</text>
</g>
<!-- 30 -->
<g id="node2" class="node">
<title>30</title>
<ellipse fill="#9370db" stroke="black" cx="56.63" cy="-325.14" rx="19.63" ry="19.63"/>
<text text-anchor="middle" x="56.63" y="-319.71" font-family="Times New Roman,serif" font-size="14.00">30</text>
</g>
<!-- 82&#45;&gt;30 -->
<g id="edge1" class="edge">
<title>82&#45;&gt;30</title>
<path fill="none" stroke="black" d="M87.95,-387.01C82.86,-377.13 76.32,-364.42 70.54,-353.17"/>
<polygon fill="black" stroke="black" points="73.67,-351.61 65.98,-344.32 67.44,-354.81 73.67,-351.61"/>
</g>
<!-- 100 -->
<g id="node3" class="node">
<title>100</title>
<ellipse fill="#9370db" stroke="black" cx="136.63" cy="-325.14" rx="24.12" ry="24.12"/>
<text text-anchor="middle" x="136.63" y="-319.71" font-family="Times New Roman,serif" font-size="14.00">100</text>
</g>
<!-- 82&#45;&gt;100 -->
<g id="edge2" class="edge">
<title>82&#45;&gt;100</title>
<path fill="none" stroke="black" d="M105.31,-387.01C109.77,-378.33 115.37,-367.46 120.58,-357.32"/>
<polygon fill="black" stroke="black" points="123.67,-358.97 125.13,-348.48 117.44,-355.77 123.67,-358.97"/>
</g>
<!-- 28 -->
<g id="node4" class="node">
<title>28</title>
<ellipse fill="#9370db" stroke="black" cx="19.63" cy="-245.39" rx="19.63" ry="19.63"/>
<text text-anchor="middle" x="19.63" y="-239.97" font-family="Times New Roman,serif" font-size="14.00">28</text>
</g>
<!-- 30&#45;&gt;28 -->
<g id="edge3" class="edge">
<title>30&#45;&gt;28</title>
<path fill="none" stroke="black" d="M48.42,-306.88C43.82,-297.22 37.97,-284.94 32.76,-273.98"/>
<polygon fill="black" stroke="black" points="35.92,-272.49 28.47,-264.96 29.6,-275.5 35.92,-272.49"/>
</g>
<!-- 60 -->
<g id="node5" class="node">
<title>60</title>
<ellipse fill="#9370db" stroke="black" cx="94.63" cy="-245.39" rx="19.63" ry="19.63"/>
<text text-anchor="middle" x="94.63" y="-239.97" font-family="Times New Roman,serif" font-size="14.00">60</text>
</g>
<!-- 30&#45;&gt;60 -->
<g id="edge4" class="edge">
<title>30&#45;&gt;60</title>
<path fill="none" stroke="black" d="M65.06,-306.88C69.83,-297.12 75.91,-284.69 81.31,-273.64"/>
<polygon fill="black" stroke="black" points="84.31,-275.48 85.55,-264.96 78.02,-272.4 84.31,-275.48"/>
</g>
<!-- 20 -->
<g id="node6" class="node">
<title>20</title>
<ellipse fill="#9370db" stroke="black" cx="19.63" cy="-170.14" rx="19.63" ry="19.63"/>
<text text-anchor="middle" x="19.63" y="-164.71" font-family="Times New Roman,serif" font-size="14.00">20</text>
</g>
<!-- 28&#45;&gt;20 -->
<g id="edge5" class="edge">
<title>28&#45;&gt;20</title>
<path fill="none" stroke="black" d="M19.63,-225.53C19.63,-218.23 19.63,-209.7 19.63,-201.59"/>
<polygon fill="black" stroke="black" points="23.13,-201.7 19.63,-191.7 16.13,-201.7 23.13,-201.7"/>
</g>
<!-- 53 -->
<g id="node7" class="node">
<title>53</title>
<ellipse fill="#9370db" stroke="black" cx="94.63" cy="-170.14" rx="19.63" ry="19.63"/>
<text text-anchor="middle" x="94.63" y="-164.71" font-family="Times New Roman,serif" font-size="14.00">53</text>
</g>
<!-- 60&#45;&gt;53 -->
<g id="edge6" class="edge">
<title>60&#45;&gt;53</title>
<path fill="none" stroke="black" d="M94.63,-225.53C94.63,-218.23 94.63,-209.7 94.63,-201.59"/>
<polygon fill="black" stroke="black" points="98.13,-201.7 94.63,-191.7 91.13,-201.7 98.13,-201.7"/>
</g>
<!-- 61 -->
<g id="node8" class="node">
<title>61</title>
<ellipse fill="#9370db" stroke="black" cx="169.63" cy="-170.14" rx="19.63" ry="19.63"/>
<text text-anchor="middle" x="169.63" y="-164.71" font-family="Times New Roman,serif" font-size="14.00">61</text>
</g>
<!-- 60&#45;&gt;61 -->
<g id="edge7" class="edge">
<title>60&#45;&gt;61</title>
<path fill="none" stroke="black" d="M108.38,-230.95C119.48,-220.11 135.3,-204.66 148.08,-192.18"/>
<polygon fill="black" stroke="black" points="150.17,-195.04 154.88,-185.54 145.28,-190.03 150.17,-195.04"/>
</g>
<!-- 48 -->
<g id="node9" class="node">
<title>48</title>
<ellipse fill="#9370db" stroke="black" cx="57.63" cy="-94.88" rx="19.63" ry="19.63"/>
<text text-anchor="middle" x="57.63" y="-89.46" font-family="Times New Roman,serif" font-size="14.00">48</text>
</g>
<!-- 53&#45;&gt;48 -->
<g id="edge8" class="edge">
<title>53&#45;&gt;48</title>
<path fill="none" stroke="black" d="M86.05,-152.15C81.69,-143.52 76.29,-132.82 71.37,-123.08"/>
<polygon fill="black" stroke="black" points="74.61,-121.73 66.97,-114.38 68.36,-124.89 74.61,-121.73"/>
</g>
<!-- 58 -->
<g id="node10" class="node">
<title>58</title>
<ellipse fill="#9370db" stroke="black" cx="132.63" cy="-94.88" rx="19.63" ry="19.63"/>
<text text-anchor="middle" x="132.63" y="-89.46" font-family="Times New Roman,serif" font-size="14.00">58</text>
</g>
<!-- 53&#45;&gt;58 -->
<g id="edge9" class="edge">
<title>53&#45;&gt;58</title>
<path fill="none" stroke="black" d="M103.44,-152.15C107.95,-143.45 113.54,-132.67 118.62,-122.87"/>
<polygon fill="black" stroke="black" points="121.67,-124.61 123.16,-114.12 115.45,-121.39 121.67,-124.61"/>
</g>
<!-- 57 -->
<g id="node11" class="node">
<title>57</title>
<ellipse fill="#9370db" stroke="black" cx="132.63" cy="-19.63" rx="19.63" ry="19.63"/>
<text text-anchor="middle" x="132.63" y="-14.2" font-family="Times New Roman,serif" font-size="14.00">57</text>
</g>
<!-- 58&#45;&gt;57 -->
<g id="edge10" class="edge">
<title>58&#45;&gt;57</title>
<path fill="none" stroke="black" d="M132.63,-75.02C132.63,-67.73 132.63,-59.19 132.63,-51.08"/>
<polygon fill="black" stroke="black" points="136.13,-51.2 132.63,-41.2 129.13,-51.2 136.13,-51.2"/>
</g>
</g>
</svg>
