<?xml version="1.0" encoding="UTF-8" standalone="no"?>
<!DOCTYPE svg PUBLIC "-//W3C//DTD SVG 1.1//EN"
 "http://www.w3.org/Graphics/SVG/1.1/DTD/svg11.dtd">
<!-- Generated by graphviz version 10.0.1 (20240210.2158)
 -->
<!-- Title: ArvoreBinaria Pages: 1 -->
<svg width="272pt" height="433pt"
 viewBox="0.00 0.00 272.25 432.51" xmlns="http://www.w3.org/2000/svg" xmlns:xlink="http://www.w3.org/1999/xlink">
<g id="graph0" class="graph" transform="scale(1 1) rotate(0) translate(4 428.51)">
<title>ArvoreBinaria</title>
<polygon fill="white" stroke="none" points="-4,4 -4,-428.51 268.25,-428.51 268.25,4 -4,4"/>
<!-- 82 -->
<g id="node1" class="node">
<title>82</title>
<ellipse fill="#9370db" stroke="black" cx="171.63" cy="-404.88" rx="19.63" ry="19.63"/>
<text text-anchor="middle" x="171.63" y="-399.46" font-family="Times New Roman,serif" font-size="14.00">82</text>
</g>
<!-- 47 -->
<g id="node2" class="node">
<title>47</title>
<ellipse fill="#9370db" stroke="black" cx="131.63" cy="-325.14" rx="19.63" ry="19.63"/>
<text text-anchor="middle" x="131.63" y="-319.71" font-family="Times New Roman,serif" font-size="14.00">47</text>
</g>
<!-- 82&#45;&gt;47 -->
<g id="edge1" class="edge">
<title>82&#45;&gt;47</title>
<path fill="none" stroke="black" d="M162.95,-387.01C157.86,-377.13 151.32,-364.42 145.54,-353.17"/>
<polygon fill="black" stroke="black" points="148.67,-351.61 140.98,-344.32 142.44,-354.81 148.67,-351.61"/>
</g>
<!-- 100 -->
<g id="node3" class="node">
<title>100</title>
<ellipse fill="#9370db" stroke="black" cx="211.63" cy="-325.14" rx="24.12" ry="24.12"/>
<text text-anchor="middle" x="211.63" y="-319.71" font-family="Times New Roman,serif" font-size="14.00">100</text>
</g>
<!-- 82&#45;&gt;100 -->
<g id="edge2" class="edge">
<title>82&#45;&gt;100</title>
<path fill="none" stroke="black" d="M180.31,-387.01C184.77,-378.33 190.37,-367.46 195.58,-357.32"/>
<polygon fill="black" stroke="black" points="198.67,-358.97 200.13,-348.48 192.44,-355.77 198.67,-358.97"/>
</g>
<!-- 28 -->
<g id="node4" class="node">
<title>28</title>
<ellipse fill="#9370db" stroke="black" cx="94.63" cy="-245.39" rx="19.63" ry="19.63"/>
<text text-anchor="middle" x="94.63" y="-239.97" font-family="Times New Roman,serif" font-size="14.00">28</text>
</g>
<!-- 47&#45;&gt;28 -->
<g id="edge3" class="edge">
<title>47&#45;&gt;28</title>
<path fill="none" stroke="black" d="M123.42,-306.88C118.82,-297.22 112.97,-284.94 107.76,-273.98"/>
<polygon fill="black" stroke="black" points="110.92,-272.49 103.47,-264.96 104.6,-275.5 110.92,-272.49"/>
</g>
<!-- 60 -->
<g id="node5" class="node">
<title>60</title>
<ellipse fill="#9370db" stroke="black" cx="169.63" cy="-245.39" rx="19.63" ry="19.63"/>
<text text-anchor="middle" x="169.63" y="-239.97" font-family="Times New Roman,serif" font-size="14.00">60</text>
</g>
<!-- 47&#45;&gt;60 -->
<g id="edge4" class="edge">
<title>47&#45;&gt;60</title>
<path fill="none" stroke="black" d="M140.06,-306.88C144.83,-297.12 150.91,-284.69 156.31,-273.64"/>
<polygon fill="black" stroke="black" points="159.31,-275.48 160.55,-264.96 153.02,-272.4 159.31,-275.48"/>
</g>
<!-- 20 -->
<g id="node6" class="node">
<title>20</title>
<ellipse fill="#9370db" stroke="black" cx="19.63" cy="-170.14" rx="19.63" ry="19.63"/>
<text text-anchor="middle" x="19.63" y="-164.71" font-family="Times New Roman,serif" font-size="14.00">20</text>
</g>
<!-- 28&#45;&gt;20 -->
<g id="edge5" class="edge">
<title>28&#45;&gt;20</title>
<path fill="none" stroke="black" d="M80.87,-230.95C69.77,-220.11 53.95,-204.66 41.17,-192.18"/>
<polygon fill="black" stroke="black" points="43.98,-190.03 34.38,-185.54 39.09,-195.04 43.98,-190.03"/>
</g>
<!-- 30 -->
<g id="node7" class="node">
<title>30</title>
<ellipse fill="#9370db" stroke="black" cx="94.63" cy="-170.14" rx="19.63" ry="19.63"/>
<text text-anchor="middle" x="94.63" y="-164.71" font-family="Times New Roman,serif" font-size="14.00">30</text>
</g>
<!-- 28&#45;&gt;30 -->
<g id="edge6" class="edge">
<title>28&#45;&gt;30</title>
<path fill="none" stroke="black" d="M94.63,-225.53C94.63,-218.23 94.63,-209.7 94.63,-201.59"/>
<polygon fill="black" stroke="black" points="98.13,-201.7 94.63,-191.7 91.13,-201.7 98.13,-201.7"/>
</g>
<!-- 53 -->
<g id="node8" class="node">
<title>53</title>
<ellipse fill="#9370db" stroke="black" cx="169.63" cy="-170.14" rx="19.63" ry="19.63"/>
<text text-anchor="middle" x="169.63" y="-164.71" font-family="Times New Roman,serif" font-size="14.00">53</text>
</g>
<!-- 60&#45;&gt;53 -->
<g id="edge7" class="edge">
<title>60&#45;&gt;53</title>
<path fill="none" stroke="black" d="M169.63,-225.53C169.63,-218.23 169.63,-209.7 169.63,-201.59"/>
<polygon fill="black" stroke="black" points="173.13,-201.7 169.63,-191.7 166.13,-201.7 173.13,-201.7"/>
</g>
<!-- 61 -->
<g id="node9" class="node">
<title>61</title>
<ellipse fill="#9370db" stroke="black" cx="244.63" cy="-170.14" rx="19.63" ry="19.63"/>
<text text-anchor="middle" x="244.63" y="-164.71" font-family="Times New Roman,serif" font-size="14.00">61</text>
</g>
<!-- 60&#45;&gt;61 -->
<g id="edge8" class="edge">
<title>60&#45;&gt;61</title>
<path fill="none" stroke="black" d="M183.38,-230.95C194.48,-220.11 210.3,-204.66 223.08,-192.18"/>
<polygon fill="black" stroke="black" points="225.17,-195.04 229.88,-185.54 220.28,-190.03 225.17,-195.04"/>
</g>
<!-- 48 -->
<g id="node10" class="node">
<title>48</title>
<ellipse fill="#9370db" stroke="black" cx="132.63" cy="-94.88" rx="19.63" ry="19.63"/>
<text text-anchor="middle" x="132.63" y="-89.46" font-family="Times New Roman,serif" font-size="14.00">48</text>
</g>
<!-- 53&#45;&gt;48 -->
<g id="edge9" class="edge">
<title>53&#45;&gt;48</title>
<path fill="none" stroke="black" d="M161.05,-152.15C156.69,-143.52 151.29,-132.82 146.37,-123.08"/>
<polygon fill="black" stroke="black" points="149.61,-121.73 141.97,-114.38 143.36,-124.89 149.61,-121.73"/>
</g>
<!-- 58 -->
<g id="node11" class="node">
<title>58</title>
<ellipse fill="#9370db" stroke="black" cx="207.63" cy="-94.88" rx="19.63" ry="19.63"/>
<text text-anchor="middle" x="207.63" y="-89.46" font-family="Times New Roman,serif" font-size="14.00">58</text>
</g>
<!-- 53&#45;&gt;58 -->
<g id="edge10" class="edge">
<title>53&#45;&gt;58</title>
<path fill="none" stroke="black" d="M178.44,-152.15C182.95,-143.45 188.54,-132.67 193.62,-122.87"/>
<polygon fill="black" stroke="black" points="196.67,-124.61 198.16,-114.12 190.45,-121.39 196.67,-124.61"/>
</g>
<!-- 57 -->
<g id="node12" class="node">
<title>57</title>
<ellipse fill="#9370db" stroke="black" cx="207.63" cy="-19.63" rx="19.63" ry="19.63"/>
<text text-anchor="middle" x="207.63" y="-14.2" font-family="Times New Roman,serif" font-size="14.00">57</text>
</g>
<!-- 58&#45;&gt;57 -->
<g id="edge11" class="edge">
<title>58&#45;&gt;57</title>
<path fill="none" stroke="black" d="M207.63,-75.02C207.63,-67.73 207.63,-59.19 207.63,-51.08"/>
<polygon fill="black" stroke="black" points="211.13,-51.2 207.63,-41.2 204.13,-51.2 211.13,-51.2"/>
</g>
</g>
</svg>
