<?xml version="1.0" encoding="UTF-8" standalone="no"?>
<!DOCTYPE svg PUBLIC "-//W3C//DTD SVG 1.1//EN"
 "http://www.w3.org/Graphics/SVG/1.1/DTD/svg11.dtd">
<!-- Generated by graphviz version 10.0.1 (20240210.2158)
 -->
<!-- Title: ArvoreBinaria Pages: 1 -->
<svg width="196pt" height="348pt"
 viewBox="0.00 0.00 196.25 348.27" xmlns="http://www.w3.org/2000/svg" xmlns:xlink="http://www.w3.org/1999/xlink">
<g id="graph0" class="graph" transform="scale(1 1) rotate(0) translate(4 344.27)">
<title>ArvoreBinaria</title>
<polygon fill="white" stroke="none" points="-4,4 -4,-344.27 192.25,-344.27 192.25,4 -4,4"/>
<!-- 25 -->
<g id="node1" class="node">
<title>25</title>
<ellipse fill="#9370db" stroke="black" cx="56.63" cy="-320.64" rx="19.63" ry="19.63"/>
<text text-anchor="middle" x="56.63" y="-315.22" font-family="Times New Roman,serif" font-size="14.00">25</text>
</g>
<!-- 14 -->
<g id="node2" class="node">
<title>14</title>
<ellipse fill="#9370db" stroke="black" cx="19.63" cy="-245.39" rx="19.63" ry="19.63"/>
<text text-anchor="middle" x="19.63" y="-239.97" font-family="Times New Roman,serif" font-size="14.00">14</text>
</g>
<!-- 25&#45;&gt;14 -->
<g id="edge1" class="edge">
<title>25&#45;&gt;14</title>
<path fill="none" stroke="black" d="M48.05,-302.65C43.69,-294.03 38.29,-283.33 33.37,-273.59"/>
<polygon fill="black" stroke="black" points="36.61,-272.24 28.97,-264.89 30.36,-275.4 36.61,-272.24"/>
</g>
<!-- 65 -->
<g id="node3" class="node">
<title>65</title>
<ellipse fill="#9370db" stroke="black" cx="94.63" cy="-245.39" rx="19.63" ry="19.63"/>
<text text-anchor="middle" x="94.63" y="-239.97" font-family="Times New Roman,serif" font-size="14.00">65</text>
</g>
<!-- 25&#45;&gt;65 -->
<g id="edge2" class="edge">
<title>25&#45;&gt;65</title>
<path fill="none" stroke="black" d="M65.44,-302.65C69.95,-293.96 75.54,-283.18 80.62,-273.38"/>
<polygon fill="black" stroke="black" points="83.67,-275.12 85.16,-264.63 77.45,-271.9 83.67,-275.12"/>
</g>
<!-- 4 -->
<g id="node4" class="node">
<title>4</title>
<ellipse fill="#9370db" stroke="black" cx="19.63" cy="-170.14" rx="18" ry="18"/>
<text text-anchor="middle" x="19.63" y="-164.71" font-family="Times New Roman,serif" font-size="14.00">4</text>
</g>
<!-- 14&#45;&gt;4 -->
<g id="edge3" class="edge">
<title>14&#45;&gt;4</title>
<path fill="none" stroke="black" d="M19.63,-225.53C19.63,-217.6 19.63,-208.21 19.63,-199.48"/>
<polygon fill="black" stroke="black" points="23.13,-199.7 19.63,-189.7 16.13,-199.7 23.13,-199.7"/>
</g>
<!-- 28 -->
<g id="node6" class="node">
<title>28</title>
<ellipse fill="#9370db" stroke="black" cx="93.63" cy="-170.14" rx="19.63" ry="19.63"/>
<text text-anchor="middle" x="93.63" y="-164.71" font-family="Times New Roman,serif" font-size="14.00">28</text>
</g>
<!-- 65&#45;&gt;28 -->
<g id="edge5" class="edge">
<title>65&#45;&gt;28</title>
<path fill="none" stroke="black" d="M94.37,-225.53C94.27,-218.23 94.15,-209.7 94.04,-201.59"/>
<polygon fill="black" stroke="black" points="97.54,-201.66 93.91,-191.7 90.54,-201.75 97.54,-201.66"/>
</g>
<!-- 95 -->
<g id="node7" class="node">
<title>95</title>
<ellipse fill="#9370db" stroke="black" cx="168.63" cy="-170.14" rx="19.63" ry="19.63"/>
<text text-anchor="middle" x="168.63" y="-164.71" font-family="Times New Roman,serif" font-size="14.00">95</text>
</g>
<!-- 65&#45;&gt;95 -->
<g id="edge6" class="edge">
<title>65&#45;&gt;95</title>
<path fill="none" stroke="black" d="M108.2,-230.95C118.98,-220.28 134.27,-205.15 146.77,-192.77"/>
<polygon fill="black" stroke="black" points="149.17,-195.32 153.81,-185.8 144.25,-190.35 149.17,-195.32"/>
</g>
<!-- 6 -->
<g id="node5" class="node">
<title>6</title>
<ellipse fill="#9370db" stroke="black" cx="19.63" cy="-94.88" rx="18" ry="18"/>
<text text-anchor="middle" x="19.63" y="-89.46" font-family="Times New Roman,serif" font-size="14.00">6</text>
</g>
<!-- 4&#45;&gt;6 -->
<g id="edge4" class="edge">
<title>4&#45;&gt;6</title>
<path fill="none" stroke="black" d="M19.63,-151.78C19.63,-143.72 19.63,-133.91 19.63,-124.78"/>
<polygon fill="black" stroke="black" points="23.13,-124.88 19.63,-114.88 16.13,-124.88 23.13,-124.88"/>
</g>
<!-- 33 -->
<g id="node8" class="node">
<title>33</title>
<ellipse fill="#9370db" stroke="black" cx="93.63" cy="-94.88" rx="19.63" ry="19.63"/>
<text text-anchor="middle" x="93.63" y="-89.46" font-family="Times New Roman,serif" font-size="14.00">33</text>
</g>
<!-- 28&#45;&gt;33 -->
<g id="edge7" class="edge">
<title>28&#45;&gt;33</title>
<path fill="none" stroke="black" d="M93.63,-150.27C93.63,-142.98 93.63,-134.45 93.63,-126.33"/>
<polygon fill="black" stroke="black" points="97.13,-126.45 93.63,-116.45 90.13,-126.45 97.13,-126.45"/>
</g>
<!-- 84 -->
<g id="node10" class="node">
<title>84</title>
<ellipse fill="#9370db" stroke="black" cx="168.63" cy="-94.88" rx="19.63" ry="19.63"/>
<text text-anchor="middle" x="168.63" y="-89.46" font-family="Times New Roman,serif" font-size="14.00">84</text>
</g>
<!-- 95&#45;&gt;84 -->
<g id="edge9" class="edge">
<title>95&#45;&gt;84</title>
<path fill="none" stroke="black" d="M168.63,-150.27C168.63,-142.98 168.63,-134.45 168.63,-126.33"/>
<polygon fill="black" stroke="black" points="172.13,-126.45 168.63,-116.45 165.13,-126.45 172.13,-126.45"/>
</g>
<!-- 29 -->
<g id="node9" class="node">
<title>29</title>
<ellipse fill="#9370db" stroke="black" cx="93.63" cy="-19.63" rx="19.63" ry="19.63"/>
<text text-anchor="middle" x="93.63" y="-14.2" font-family="Times New Roman,serif" font-size="14.00">29</text>
</g>
<!-- 33&#45;&gt;29 -->
<g id="edge8" class="edge">
<title>33&#45;&gt;29</title>
<path fill="none" stroke="black" d="M93.63,-75.02C93.63,-67.73 93.63,-59.19 93.63,-51.08"/>
<polygon fill="black" stroke="black" points="97.13,-51.2 93.63,-41.2 90.13,-51.2 97.13,-51.2"/>
</g>
<!-- 71 -->
<g id="node11" class="node">
<title>71</title>
<ellipse fill="#9370db" stroke="black" cx="168.63" cy="-19.63" rx="19.63" ry="19.63"/>
<text text-anchor="middle" x="168.63" y="-14.2" font-family="Times New Roman,serif" font-size="14.00">71</text>
</g>
<!-- 84&#45;&gt;71 -->
<g id="edge10" class="edge">
<title>84&#45;&gt;71</title>
<path fill="none" stroke="black" d="M168.63,-75.02C168.63,-67.73 168.63,-59.19 168.63,-51.08"/>
<polygon fill="black" stroke="black" points="172.13,-51.2 168.63,-41.2 165.13,-51.2 172.13,-51.2"/>
</g>
</g>
</svg>
