<?xml version="1.0" encoding="UTF-8" standalone="no"?>
<!DOCTYPE svg PUBLIC "-//W3C//DTD SVG 1.1//EN"
 "http://www.w3.org/Graphics/SVG/1.1/DTD/svg11.dtd">
<!-- Generated by graphviz version 10.0.1 (20240210.2158)
 -->
<!-- Title: ArvoreBinaria Pages: 1 -->
<svg width="357pt" height="291pt"
 viewBox="0.00 0.00 357.12 290.98" xmlns="http://www.w3.org/2000/svg" xmlns:xlink="http://www.w3.org/1999/xlink">
<g id="graph0" class="graph" transform="scale(1 1) rotate(0) translate(4 286.98)">
<title>ArvoreBinaria</title>
<polygon fill="white" stroke="none" points="-4,4 -4,-286.98 353.12,-286.98 353.12,4 -4,4"/>
<!-- 25 -->
<g id="node1" class="node">
<title>25</title>
<ellipse fill="#9370db" stroke="black" cx="167" cy="-263.35" rx="19.63" ry="19.63"/>
<text text-anchor="middle" x="167" y="-257.93" font-family="Times New Roman,serif" font-size="14.00">25</text>
</g>
<!-- 20 -->
<g id="node2" class="node">
<title>20</title>
<ellipse fill="#9370db" stroke="black" cx="130" cy="-188.1" rx="19.63" ry="19.63"/>
<text text-anchor="middle" x="130" y="-182.67" font-family="Times New Roman,serif" font-size="14.00">20</text>
</g>
<!-- 25&#45;&gt;20 -->
<g id="edge1" class="edge">
<title>25&#45;&gt;20</title>
<path fill="none" stroke="black" d="M158.42,-245.36C154.06,-236.74 148.66,-226.04 143.74,-216.3"/>
<polygon fill="black" stroke="black" points="146.98,-214.95 139.35,-207.6 140.73,-218.11 146.98,-214.95"/>
</g>
<!-- 91 -->
<g id="node3" class="node">
<title>91</title>
<ellipse fill="#9370db" stroke="black" cx="205" cy="-188.1" rx="19.63" ry="19.63"/>
<text text-anchor="middle" x="205" y="-182.67" font-family="Times New Roman,serif" font-size="14.00">91</text>
</g>
<!-- 25&#45;&gt;91 -->
<g id="edge2" class="edge">
<title>25&#45;&gt;91</title>
<path fill="none" stroke="black" d="M175.81,-245.36C180.32,-236.67 185.92,-225.89 191,-216.09"/>
<polygon fill="black" stroke="black" points="194.04,-217.83 195.54,-207.34 187.83,-214.61 194.04,-217.83"/>
</g>
<!-- 14 -->
<g id="node4" class="node">
<title>14</title>
<ellipse fill="#9370db" stroke="black" cx="55" cy="-108.35" rx="19.63" ry="19.63"/>
<text text-anchor="middle" x="55" y="-102.93" font-family="Times New Roman,serif" font-size="14.00">14</text>
</g>
<!-- 20&#45;&gt;14 -->
<g id="edge3" class="edge">
<title>20&#45;&gt;14</title>
<path fill="none" stroke="black" d="M116.59,-173.2C105.39,-161.59 89.22,-144.83 76.26,-131.4"/>
<polygon fill="black" stroke="black" points="78.81,-128.99 69.34,-124.22 73.77,-133.85 78.81,-128.99"/>
</g>
<!-- 23 -->
<g id="node5" class="node">
<title>23</title>
<ellipse fill="#9370db" stroke="black" cx="130" cy="-108.35" rx="19.63" ry="19.63"/>
<text text-anchor="middle" x="130" y="-102.93" font-family="Times New Roman,serif" font-size="14.00">23</text>
</g>
<!-- 20&#45;&gt;23 -->
<g id="edge4" class="edge">
<title>20&#45;&gt;23</title>
<path fill="none" stroke="black" d="M130,-168.28C130,-159.65 130,-149.21 130,-139.53"/>
<polygon fill="black" stroke="black" points="133.5,-139.78 130,-129.78 126.5,-139.78 133.5,-139.78"/>
</g>
<!-- 48 -->
<g id="node8" class="node">
<title>48</title>
<ellipse fill="#9370db" stroke="black" cx="205" cy="-108.35" rx="19.63" ry="19.63"/>
<text text-anchor="middle" x="205" y="-102.93" font-family="Times New Roman,serif" font-size="14.00">48</text>
</g>
<!-- 91&#45;&gt;48 -->
<g id="edge7" class="edge">
<title>91&#45;&gt;48</title>
<path fill="none" stroke="black" d="M205,-168.28C205,-159.65 205,-149.21 205,-139.53"/>
<polygon fill="black" stroke="black" points="208.5,-139.78 205,-129.78 201.5,-139.78 208.5,-139.78"/>
</g>
<!-- 100 -->
<g id="node9" class="node">
<title>100</title>
<ellipse fill="#9370db" stroke="black" cx="285" cy="-108.35" rx="24.12" ry="24.12"/>
<text text-anchor="middle" x="285" y="-102.93" font-family="Times New Roman,serif" font-size="14.00">100</text>
</g>
<!-- 91&#45;&gt;100 -->
<g id="edge8" class="edge">
<title>91&#45;&gt;100</title>
<path fill="none" stroke="black" d="M218.57,-173.91C229.87,-162.93 246.25,-147.01 259.93,-133.72"/>
<polygon fill="black" stroke="black" points="262.2,-136.39 266.93,-126.91 257.32,-131.37 262.2,-136.39"/>
</g>
<!-- 6 -->
<g id="node6" class="node">
<title>6</title>
<ellipse fill="#9370db" stroke="black" cx="18" cy="-24.12" rx="18" ry="18"/>
<text text-anchor="middle" x="18" y="-18.69" font-family="Times New Roman,serif" font-size="14.00">6</text>
</g>
<!-- 14&#45;&gt;6 -->
<g id="edge5" class="edge">
<title>14&#45;&gt;6</title>
<path fill="none" stroke="black" d="M47.15,-89.91C42.13,-78.76 35.52,-64.07 29.87,-51.5"/>
<polygon fill="black" stroke="black" points="33.12,-50.2 25.83,-42.52 26.74,-53.07 33.12,-50.2"/>
</g>
<!-- 19 -->
<g id="node7" class="node">
<title>19</title>
<ellipse fill="#9370db" stroke="black" cx="92" cy="-24.12" rx="19.63" ry="19.63"/>
<text text-anchor="middle" x="92" y="-18.69" font-family="Times New Roman,serif" font-size="14.00">19</text>
</g>
<!-- 14&#45;&gt;19 -->
<g id="edge6" class="edge">
<title>14&#45;&gt;19</title>
<path fill="none" stroke="black" d="M62.85,-89.91C67.7,-79.12 74.05,-65.02 79.57,-52.74"/>
<polygon fill="black" stroke="black" points="82.63,-54.47 83.54,-43.91 76.25,-51.6 82.63,-54.47"/>
</g>
<!-- 97 -->
<g id="node10" class="node">
<title>97</title>
<ellipse fill="#9370db" stroke="black" cx="245" cy="-24.12" rx="19.63" ry="19.63"/>
<text text-anchor="middle" x="245" y="-18.69" font-family="Times New Roman,serif" font-size="14.00">97</text>
</g>
<!-- 100&#45;&gt;97 -->
<g id="edge9" class="edge">
<title>100&#45;&gt;97</title>
<path fill="none" stroke="black" d="M274.7,-86.18C269.73,-75.97 263.72,-63.6 258.4,-52.67"/>
<polygon fill="black" stroke="black" points="261.57,-51.17 254.04,-43.71 255.27,-54.23 261.57,-51.17"/>
</g>
<!-- 120 -->
<g id="node11" class="node">
<title>120</title>
<ellipse fill="#9370db" stroke="black" cx="325" cy="-24.12" rx="24.12" ry="24.12"/>
<text text-anchor="middle" x="325" y="-18.69" font-family="Times New Roman,serif" font-size="14.00">120</text>
</g>
<!-- 100&#45;&gt;120 -->
<g id="edge10" class="edge">
<title>100&#45;&gt;120</title>
<path fill="none" stroke="black" d="M295.3,-86.18C299.69,-77.16 304.89,-66.45 309.71,-56.55"/>
<polygon fill="black" stroke="black" points="312.85,-58.11 314.07,-47.59 306.55,-55.05 312.85,-58.11"/>
</g>
</g>
</svg>
