<?xml version="1.0" encoding="UTF-8" standalone="no"?>
<!DOCTYPE svg PUBLIC "-//W3C//DTD SVG 1.1//EN"
 "http://www.w3.org/Graphics/SVG/1.1/DTD/svg11.dtd">
<!-- Generated by graphviz version 10.0.1 (20240210.2158)
 -->
<!-- Title: ArvoreBinaria Pages: 1 -->
<svg width="272pt" height="508pt"
 viewBox="0.00 0.00 272.25 507.76" xmlns="http://www.w3.org/2000/svg" xmlns:xlink="http://www.w3.org/1999/xlink">
<g id="graph0" class="graph" transform="scale(1 1) rotate(0) translate(4 503.76)">
<title>ArvoreBinaria</title>
<polygon fill="white" stroke="none" points="-4,4 -4,-503.76 268.25,-503.76 268.25,4 -4,4"/>
<!-- 100 -->
<g id="node1" class="node">
<title>100</title>
<ellipse fill="#9370db" stroke="black" cx="132.63" cy="-475.64" rx="24.12" ry="24.12"/>
<text text-anchor="middle" x="132.63" y="-470.22" font-family="Times New Roman,serif" font-size="14.00">100</text>
</g>
<!-- 37 -->
<g id="node2" class="node">
<title>37</title>
<ellipse fill="#9370db" stroke="black" cx="132.63" cy="-395.9" rx="19.63" ry="19.63"/>
<text text-anchor="middle" x="132.63" y="-390.47" font-family="Times New Roman,serif" font-size="14.00">37</text>
</g>
<!-- 100&#45;&gt;37 -->
<g id="edge1" class="edge">
<title>100&#45;&gt;37</title>
<path fill="none" stroke="black" d="M132.63,-451.32C132.63,-443.68 132.63,-435.09 132.63,-427.03"/>
<polygon fill="black" stroke="black" points="136.13,-427.29 132.63,-417.29 129.13,-427.29 136.13,-427.29"/>
</g>
<!-- 3 -->
<g id="node3" class="node">
<title>3</title>
<ellipse fill="#9370db" stroke="black" cx="95.63" cy="-320.64" rx="18" ry="18"/>
<text text-anchor="middle" x="95.63" y="-315.22" font-family="Times New Roman,serif" font-size="14.00">3</text>
</g>
<!-- 37&#45;&gt;3 -->
<g id="edge2" class="edge">
<title>37&#45;&gt;3</title>
<path fill="none" stroke="black" d="M124.05,-377.91C119.42,-368.75 113.62,-357.26 108.46,-347.06"/>
<polygon fill="black" stroke="black" points="111.72,-345.74 104.09,-338.4 105.47,-348.9 111.72,-345.74"/>
</g>
<!-- 54 -->
<g id="node4" class="node">
<title>54</title>
<ellipse fill="#9370db" stroke="black" cx="169.63" cy="-320.64" rx="19.63" ry="19.63"/>
<text text-anchor="middle" x="169.63" y="-315.22" font-family="Times New Roman,serif" font-size="14.00">54</text>
</g>
<!-- 37&#45;&gt;54 -->
<g id="edge3" class="edge">
<title>37&#45;&gt;54</title>
<path fill="none" stroke="black" d="M141.21,-377.91C145.57,-369.28 150.97,-358.59 155.89,-348.85"/>
<polygon fill="black" stroke="black" points="158.9,-350.65 160.28,-340.15 152.65,-347.5 158.9,-350.65"/>
</g>
<!-- 27 -->
<g id="node5" class="node">
<title>27</title>
<ellipse fill="#9370db" stroke="black" cx="94.63" cy="-245.39" rx="19.63" ry="19.63"/>
<text text-anchor="middle" x="94.63" y="-239.97" font-family="Times New Roman,serif" font-size="14.00">27</text>
</g>
<!-- 3&#45;&gt;27 -->
<g id="edge4" class="edge">
<title>3&#45;&gt;27</title>
<path fill="none" stroke="black" d="M95.39,-302.28C95.29,-294.66 95.16,-285.49 95.04,-276.79"/>
<polygon fill="black" stroke="black" points="98.54,-276.89 94.91,-266.94 91.54,-276.99 98.54,-276.89"/>
</g>
<!-- 43 -->
<g id="node8" class="node">
<title>43</title>
<ellipse fill="#9370db" stroke="black" cx="169.63" cy="-245.39" rx="19.63" ry="19.63"/>
<text text-anchor="middle" x="169.63" y="-239.97" font-family="Times New Roman,serif" font-size="14.00">43</text>
</g>
<!-- 54&#45;&gt;43 -->
<g id="edge7" class="edge">
<title>54&#45;&gt;43</title>
<path fill="none" stroke="black" d="M169.63,-300.78C169.63,-293.49 169.63,-284.96 169.63,-276.84"/>
<polygon fill="black" stroke="black" points="173.13,-276.96 169.63,-266.96 166.13,-276.96 173.13,-276.96"/>
</g>
<!-- 99 -->
<g id="node9" class="node">
<title>99</title>
<ellipse fill="#9370db" stroke="black" cx="244.63" cy="-245.39" rx="19.63" ry="19.63"/>
<text text-anchor="middle" x="244.63" y="-239.97" font-family="Times New Roman,serif" font-size="14.00">99</text>
</g>
<!-- 54&#45;&gt;99 -->
<g id="edge8" class="edge">
<title>54&#45;&gt;99</title>
<path fill="none" stroke="black" d="M183.38,-306.21C194.48,-295.37 210.3,-279.92 223.08,-267.44"/>
<polygon fill="black" stroke="black" points="225.17,-270.29 229.88,-260.8 220.28,-265.28 225.17,-270.29"/>
</g>
<!-- 11 -->
<g id="node6" class="node">
<title>11</title>
<ellipse fill="#9370db" stroke="black" cx="19.63" cy="-170.14" rx="19.63" ry="19.63"/>
<text text-anchor="middle" x="19.63" y="-164.71" font-family="Times New Roman,serif" font-size="14.00">11</text>
</g>
<!-- 27&#45;&gt;11 -->
<g id="edge5" class="edge">
<title>27&#45;&gt;11</title>
<path fill="none" stroke="black" d="M80.87,-230.95C69.77,-220.11 53.95,-204.66 41.17,-192.18"/>
<polygon fill="black" stroke="black" points="43.98,-190.03 34.38,-185.54 39.09,-195.04 43.98,-190.03"/>
</g>
<!-- 30 -->
<g id="node7" class="node">
<title>30</title>
<ellipse fill="#9370db" stroke="black" cx="94.63" cy="-170.14" rx="19.63" ry="19.63"/>
<text text-anchor="middle" x="94.63" y="-164.71" font-family="Times New Roman,serif" font-size="14.00">30</text>
</g>
<!-- 27&#45;&gt;30 -->
<g id="edge6" class="edge">
<title>27&#45;&gt;30</title>
<path fill="none" stroke="black" d="M94.63,-225.53C94.63,-218.23 94.63,-209.7 94.63,-201.59"/>
<polygon fill="black" stroke="black" points="98.13,-201.7 94.63,-191.7 91.13,-201.7 98.13,-201.7"/>
</g>
<!-- 50 -->
<g id="node10" class="node">
<title>50</title>
<ellipse fill="#9370db" stroke="black" cx="169.63" cy="-170.14" rx="19.63" ry="19.63"/>
<text text-anchor="middle" x="169.63" y="-164.71" font-family="Times New Roman,serif" font-size="14.00">50</text>
</g>
<!-- 43&#45;&gt;50 -->
<g id="edge9" class="edge">
<title>43&#45;&gt;50</title>
<path fill="none" stroke="black" d="M169.63,-225.53C169.63,-218.23 169.63,-209.7 169.63,-201.59"/>
<polygon fill="black" stroke="black" points="173.13,-201.7 169.63,-191.7 166.13,-201.7 173.13,-201.7"/>
</g>
<!-- 91 -->
<g id="node11" class="node">
<title>91</title>
<ellipse fill="#9370db" stroke="black" cx="244.63" cy="-170.14" rx="19.63" ry="19.63"/>
<text text-anchor="middle" x="244.63" y="-164.71" font-family="Times New Roman,serif" font-size="14.00">91</text>
</g>
<!-- 99&#45;&gt;91 -->
<g id="edge10" class="edge">
<title>99&#45;&gt;91</title>
<path fill="none" stroke="black" d="M244.63,-225.53C244.63,-218.23 244.63,-209.7 244.63,-201.59"/>
<polygon fill="black" stroke="black" points="248.13,-201.7 244.63,-191.7 241.13,-201.7 248.13,-201.7"/>
</g>
<!-- 69 -->
<g id="node12" class="node">
<title>69</title>
<ellipse fill="#9370db" stroke="black" cx="244.63" cy="-94.88" rx="19.63" ry="19.63"/>
<text text-anchor="middle" x="244.63" y="-89.46" font-family="Times New Roman,serif" font-size="14.00">69</text>
</g>
<!-- 91&#45;&gt;69 -->
<g id="edge11" class="edge">
<title>91&#45;&gt;69</title>
<path fill="none" stroke="black" d="M244.63,-150.27C244.63,-142.98 244.63,-134.45 244.63,-126.33"/>
<polygon fill="black" stroke="black" points="248.13,-126.45 244.63,-116.45 241.13,-126.45 248.13,-126.45"/>
</g>
<!-- 60 -->
<g id="node13" class="node">
<title>60</title>
<ellipse fill="#9370db" stroke="black" cx="244.63" cy="-19.63" rx="19.63" ry="19.63"/>
<text text-anchor="middle" x="244.63" y="-14.2" font-family="Times New Roman,serif" font-size="14.00">60</text>
</g>
<!-- 69&#45;&gt;60 -->
<g id="edge12" class="edge">
<title>69&#45;&gt;60</title>
<path fill="none" stroke="black" d="M244.63,-75.02C244.63,-67.73 244.63,-59.19 244.63,-51.08"/>
<polygon fill="black" stroke="black" points="248.13,-51.2 244.63,-41.2 241.13,-51.2 248.13,-51.2"/>
</g>
</g>
</svg>
