<?xml version="1.0" encoding="UTF-8" standalone="no"?>
<!DOCTYPE svg PUBLIC "-//W3C//DTD SVG 1.1//EN"
 "http://www.w3.org/Graphics/SVG/1.1/DTD/svg11.dtd">
<!-- Generated by graphviz version 10.0.1 (20240210.2158)
 -->
<!-- Title: ArvoreBinaria Pages: 1 -->
<svg width="279pt" height="433pt"
 viewBox="0.00 0.00 279.12 432.51" xmlns="http://www.w3.org/2000/svg" xmlns:xlink="http://www.w3.org/1999/xlink">
<g id="graph0" class="graph" transform="scale(1 1) rotate(0) translate(4 428.51)">
<title>ArvoreBinaria</title>
<polygon fill="white" stroke="none" points="-4,4 -4,-428.51 275.12,-428.51 275.12,4 -4,4"/>
<!-- 70 -->
<g id="node1" class="node">
<title>70</title>
<ellipse fill="#9370db" stroke="black" cx="129" cy="-404.88" rx="19.63" ry="19.63"/>
<text text-anchor="middle" x="129" y="-399.46" font-family="Times New Roman,serif" font-size="14.00">70</text>
</g>
<!-- 15 -->
<g id="node2" class="node">
<title>15</title>
<ellipse fill="#9370db" stroke="black" cx="92" cy="-329.63" rx="19.63" ry="19.63"/>
<text text-anchor="middle" x="92" y="-324.2" font-family="Times New Roman,serif" font-size="14.00">15</text>
</g>
<!-- 70&#45;&gt;15 -->
<g id="edge1" class="edge">
<title>70&#45;&gt;15</title>
<path fill="none" stroke="black" d="M120.42,-386.89C116.06,-378.26 110.66,-367.57 105.74,-357.83"/>
<polygon fill="black" stroke="black" points="108.98,-356.48 101.35,-349.13 102.73,-359.63 108.98,-356.48"/>
</g>
<!-- 82 -->
<g id="node3" class="node">
<title>82</title>
<ellipse fill="#9370db" stroke="black" cx="167" cy="-329.63" rx="19.63" ry="19.63"/>
<text text-anchor="middle" x="167" y="-324.2" font-family="Times New Roman,serif" font-size="14.00">82</text>
</g>
<!-- 70&#45;&gt;82 -->
<g id="edge2" class="edge">
<title>70&#45;&gt;82</title>
<path fill="none" stroke="black" d="M137.81,-386.89C142.32,-378.2 147.92,-367.41 153,-357.62"/>
<polygon fill="black" stroke="black" points="156.04,-359.36 157.54,-348.87 149.83,-356.13 156.04,-359.36"/>
</g>
<!-- 6 -->
<g id="node4" class="node">
<title>6</title>
<ellipse fill="#9370db" stroke="black" cx="18" cy="-249.88" rx="18" ry="18"/>
<text text-anchor="middle" x="18" y="-244.46" font-family="Times New Roman,serif" font-size="14.00">6</text>
</g>
<!-- 15&#45;&gt;6 -->
<g id="edge3" class="edge">
<title>15&#45;&gt;6</title>
<path fill="none" stroke="black" d="M78.77,-314.73C67.45,-302.83 50.98,-285.53 38.04,-271.93"/>
<polygon fill="black" stroke="black" points="40.61,-269.56 31.18,-264.73 35.54,-274.38 40.61,-269.56"/>
</g>
<!-- 48 -->
<g id="node5" class="node">
<title>48</title>
<ellipse fill="#9370db" stroke="black" cx="92" cy="-249.88" rx="19.63" ry="19.63"/>
<text text-anchor="middle" x="92" y="-244.46" font-family="Times New Roman,serif" font-size="14.00">48</text>
</g>
<!-- 15&#45;&gt;48 -->
<g id="edge4" class="edge">
<title>15&#45;&gt;48</title>
<path fill="none" stroke="black" d="M92,-309.81C92,-301.18 92,-290.74 92,-281.06"/>
<polygon fill="black" stroke="black" points="95.5,-281.31 92,-271.31 88.5,-281.31 95.5,-281.31"/>
</g>
<!-- 73 -->
<g id="node10" class="node">
<title>73</title>
<ellipse fill="#9370db" stroke="black" cx="167" cy="-249.88" rx="19.63" ry="19.63"/>
<text text-anchor="middle" x="167" y="-244.46" font-family="Times New Roman,serif" font-size="14.00">73</text>
</g>
<!-- 82&#45;&gt;73 -->
<g id="edge9" class="edge">
<title>82&#45;&gt;73</title>
<path fill="none" stroke="black" d="M167,-309.81C167,-301.18 167,-290.74 167,-281.06"/>
<polygon fill="black" stroke="black" points="170.5,-281.31 167,-271.31 163.5,-281.31 170.5,-281.31"/>
</g>
<!-- 104 -->
<g id="node11" class="node">
<title>104</title>
<ellipse fill="#9370db" stroke="black" cx="247" cy="-249.88" rx="24.12" ry="24.12"/>
<text text-anchor="middle" x="247" y="-244.46" font-family="Times New Roman,serif" font-size="14.00">104</text>
</g>
<!-- 82&#45;&gt;104 -->
<g id="edge10" class="edge">
<title>82&#45;&gt;104</title>
<path fill="none" stroke="black" d="M180.57,-315.44C191.87,-304.46 208.25,-288.53 221.93,-275.25"/>
<polygon fill="black" stroke="black" points="224.2,-277.92 228.93,-268.44 219.32,-272.9 224.2,-277.92"/>
</g>
<!-- 28 -->
<g id="node6" class="node">
<title>28</title>
<ellipse fill="#9370db" stroke="black" cx="55" cy="-170.14" rx="19.63" ry="19.63"/>
<text text-anchor="middle" x="55" y="-164.71" font-family="Times New Roman,serif" font-size="14.00">28</text>
</g>
<!-- 48&#45;&gt;28 -->
<g id="edge5" class="edge">
<title>48&#45;&gt;28</title>
<path fill="none" stroke="black" d="M83.79,-231.63C79.19,-221.96 73.35,-209.69 68.13,-198.72"/>
<polygon fill="black" stroke="black" points="71.3,-197.23 63.84,-189.71 64.98,-200.24 71.3,-197.23"/>
</g>
<!-- 58 -->
<g id="node7" class="node">
<title>58</title>
<ellipse fill="#9370db" stroke="black" cx="130" cy="-170.14" rx="19.63" ry="19.63"/>
<text text-anchor="middle" x="130" y="-164.71" font-family="Times New Roman,serif" font-size="14.00">58</text>
</g>
<!-- 48&#45;&gt;58 -->
<g id="edge6" class="edge">
<title>48&#45;&gt;58</title>
<path fill="none" stroke="black" d="M100.43,-231.63C105.21,-221.86 111.28,-209.43 116.68,-198.38"/>
<polygon fill="black" stroke="black" points="119.68,-200.22 120.93,-189.7 113.39,-197.15 119.68,-200.22"/>
</g>
<!-- 22 -->
<g id="node8" class="node">
<title>22</title>
<ellipse fill="#9370db" stroke="black" cx="55" cy="-94.88" rx="19.63" ry="19.63"/>
<text text-anchor="middle" x="55" y="-89.46" font-family="Times New Roman,serif" font-size="14.00">22</text>
</g>
<!-- 28&#45;&gt;22 -->
<g id="edge7" class="edge">
<title>28&#45;&gt;22</title>
<path fill="none" stroke="black" d="M55,-150.27C55,-142.98 55,-134.45 55,-126.33"/>
<polygon fill="black" stroke="black" points="58.5,-126.45 55,-116.45 51.5,-126.45 58.5,-126.45"/>
</g>
<!-- 20 -->
<g id="node9" class="node">
<title>20</title>
<ellipse fill="#9370db" stroke="black" cx="55" cy="-19.63" rx="19.63" ry="19.63"/>
<text text-anchor="middle" x="55" y="-14.2" font-family="Times New Roman,serif" font-size="14.00">20</text>
</g>
<!-- 22&#45;&gt;20 -->
<g id="edge8" class="edge">
<title>22&#45;&gt;20</title>
<path fill="none" stroke="black" d="M55,-75.02C55,-67.73 55,-59.19 55,-51.08"/>
<polygon fill="black" stroke="black" points="58.5,-51.2 55,-41.2 51.5,-51.2 58.5,-51.2"/>
</g>
</g>
</svg>
