<?xml version="1.0" encoding="UTF-8" standalone="no"?>
<!DOCTYPE svg PUBLIC "-//W3C//DTD SVG 1.1//EN"
 "http://www.w3.org/Graphics/SVG/1.1/DTD/svg11.dtd">
<!-- Generated by graphviz version 10.0.1 (20240210.2158)
 -->
<!-- Title: ArvoreBinaria Pages: 1 -->
<svg width="279pt" height="357pt"
 viewBox="0.00 0.00 278.75 357.25" xmlns="http://www.w3.org/2000/svg" xmlns:xlink="http://www.w3.org/1999/xlink">
<g id="graph0" class="graph" transform="scale(1 1) rotate(0) translate(4 353.25)">
<title>ArvoreBinaria</title>
<polygon fill="white" stroke="none" points="-4,4 -4,-353.25 274.75,-353.25 274.75,4 -4,4"/>
<!-- 35 -->
<g id="node1" class="node">
<title>35</title>
<ellipse fill="#9370db" stroke="black" cx="131.63" cy="-329.63" rx="19.63" ry="19.63"/>
<text text-anchor="middle" x="131.63" y="-324.2" font-family="Times New Roman,serif" font-size="14.00">35</text>
</g>
<!-- 28 -->
<g id="node2" class="node">
<title>28</title>
<ellipse fill="#9370db" stroke="black" cx="94.63" cy="-254.37" rx="19.63" ry="19.63"/>
<text text-anchor="middle" x="94.63" y="-248.95" font-family="Times New Roman,serif" font-size="14.00">28</text>
</g>
<!-- 35&#45;&gt;28 -->
<g id="edge1" class="edge">
<title>35&#45;&gt;28</title>
<path fill="none" stroke="black" d="M123.05,-311.64C118.69,-303.01 113.29,-292.31 108.37,-282.57"/>
<polygon fill="black" stroke="black" points="111.61,-281.22 103.97,-273.87 105.36,-284.38 111.61,-281.22"/>
</g>
<!-- 47 -->
<g id="node3" class="node">
<title>47</title>
<ellipse fill="#9370db" stroke="black" cx="169.63" cy="-254.37" rx="19.63" ry="19.63"/>
<text text-anchor="middle" x="169.63" y="-248.95" font-family="Times New Roman,serif" font-size="14.00">47</text>
</g>
<!-- 35&#45;&gt;47 -->
<g id="edge2" class="edge">
<title>35&#45;&gt;47</title>
<path fill="none" stroke="black" d="M140.44,-311.64C144.95,-302.95 150.54,-292.16 155.62,-282.36"/>
<polygon fill="black" stroke="black" points="158.67,-284.1 160.16,-273.61 152.45,-280.88 158.67,-284.1"/>
</g>
<!-- 20 -->
<g id="node4" class="node">
<title>20</title>
<ellipse fill="#9370db" stroke="black" cx="19.63" cy="-179.12" rx="19.63" ry="19.63"/>
<text text-anchor="middle" x="19.63" y="-173.69" font-family="Times New Roman,serif" font-size="14.00">20</text>
</g>
<!-- 28&#45;&gt;20 -->
<g id="edge3" class="edge">
<title>28&#45;&gt;20</title>
<path fill="none" stroke="black" d="M80.87,-239.94C69.77,-229.09 53.95,-213.65 41.17,-201.16"/>
<polygon fill="black" stroke="black" points="43.98,-199.01 34.38,-194.53 39.09,-204.02 43.98,-199.01"/>
</g>
<!-- 30 -->
<g id="node5" class="node">
<title>30</title>
<ellipse fill="#9370db" stroke="black" cx="94.63" cy="-179.12" rx="19.63" ry="19.63"/>
<text text-anchor="middle" x="94.63" y="-173.69" font-family="Times New Roman,serif" font-size="14.00">30</text>
</g>
<!-- 28&#45;&gt;30 -->
<g id="edge4" class="edge">
<title>28&#45;&gt;30</title>
<path fill="none" stroke="black" d="M94.63,-234.51C94.63,-227.22 94.63,-218.69 94.63,-210.57"/>
<polygon fill="black" stroke="black" points="98.13,-210.69 94.63,-200.69 91.13,-210.69 98.13,-210.69"/>
</g>
<!-- 53 -->
<g id="node6" class="node">
<title>53</title>
<ellipse fill="#9370db" stroke="black" cx="169.63" cy="-179.12" rx="19.63" ry="19.63"/>
<text text-anchor="middle" x="169.63" y="-173.69" font-family="Times New Roman,serif" font-size="14.00">53</text>
</g>
<!-- 47&#45;&gt;53 -->
<g id="edge5" class="edge">
<title>47&#45;&gt;53</title>
<path fill="none" stroke="black" d="M169.63,-234.51C169.63,-227.22 169.63,-218.69 169.63,-210.57"/>
<polygon fill="black" stroke="black" points="173.13,-210.69 169.63,-200.69 166.13,-210.69 173.13,-210.69"/>
</g>
<!-- 48 -->
<g id="node7" class="node">
<title>48</title>
<ellipse fill="#9370db" stroke="black" cx="131.63" cy="-103.86" rx="19.63" ry="19.63"/>
<text text-anchor="middle" x="131.63" y="-98.44" font-family="Times New Roman,serif" font-size="14.00">48</text>
</g>
<!-- 53&#45;&gt;48 -->
<g id="edge6" class="edge">
<title>53&#45;&gt;48</title>
<path fill="none" stroke="black" d="M160.81,-161.13C156.31,-152.44 150.71,-141.65 145.63,-131.86"/>
<polygon fill="black" stroke="black" points="148.8,-130.37 141.09,-123.1 142.59,-133.59 148.8,-130.37"/>
</g>
<!-- 61 -->
<g id="node8" class="node">
<title>61</title>
<ellipse fill="#9370db" stroke="black" cx="206.63" cy="-103.86" rx="19.63" ry="19.63"/>
<text text-anchor="middle" x="206.63" y="-98.44" font-family="Times New Roman,serif" font-size="14.00">61</text>
</g>
<!-- 53&#45;&gt;61 -->
<g id="edge7" class="edge">
<title>53&#45;&gt;61</title>
<path fill="none" stroke="black" d="M178.21,-161.13C182.57,-152.5 187.97,-141.81 192.89,-132.07"/>
<polygon fill="black" stroke="black" points="195.9,-133.87 197.28,-123.37 189.65,-130.71 195.9,-133.87"/>
</g>
<!-- 60 -->
<g id="node9" class="node">
<title>60</title>
<ellipse fill="#9370db" stroke="black" cx="166.63" cy="-24.12" rx="19.63" ry="19.63"/>
<text text-anchor="middle" x="166.63" y="-18.69" font-family="Times New Roman,serif" font-size="14.00">60</text>
</g>
<!-- 61&#45;&gt;60 -->
<g id="edge8" class="edge">
<title>61&#45;&gt;60</title>
<path fill="none" stroke="black" d="M197.95,-85.99C192.86,-76.11 186.32,-63.4 180.54,-52.15"/>
<polygon fill="black" stroke="black" points="183.67,-50.59 175.98,-43.3 177.44,-53.79 183.67,-50.59"/>
</g>
<!-- 100 -->
<g id="node10" class="node">
<title>100</title>
<ellipse fill="#9370db" stroke="black" cx="246.63" cy="-24.12" rx="24.12" ry="24.12"/>
<text text-anchor="middle" x="246.63" y="-18.69" font-family="Times New Roman,serif" font-size="14.00">100</text>
</g>
<!-- 61&#45;&gt;100 -->
<g id="edge9" class="edge">
<title>61&#45;&gt;100</title>
<path fill="none" stroke="black" d="M215.31,-85.99C219.77,-77.31 225.37,-66.44 230.58,-56.3"/>
<polygon fill="black" stroke="black" points="233.67,-57.96 235.13,-47.46 227.44,-54.75 233.67,-57.96"/>
</g>
</g>
</svg>
